<svg id="SvgjsSvg1112" width="980" height="545.4500122070312" xmlns="http://www.w3.org/2000/svg" version="1.1" xmlns:xlink="http://www.w3.org/1999/xlink" xmlns:svgjs="http://svgjs.com/svgjs"><defs id="SvgjsDefs1113"><marker id="SvgjsMarker1160" markerWidth="14" markerHeight="10" refX="10" refY="5" viewBox="0 0 14 10" orient="auto" markerUnits="userSpaceOnUse" stroke-dasharray="0,0"><path id="SvgjsPath1161" d="M0,0 L14,5 L0,10 L0,0" fill="#323232" stroke="#323232" stroke-width="1"></path></marker><marker id="SvgjsMarker1216" markerWidth="14" markerHeight="10" refX="10" refY="5" viewBox="0 0 14 10" orient="auto" markerUnits="userSpaceOnUse" stroke-dasharray="0,0"><path id="SvgjsPath1217" d="M0,0 L14,5 L0,10 L0,0" fill="#323232" stroke="#323232" stroke-width="1"></path></marker></defs><g id="SvgjsG1114" transform="translate(25.005289638617796,190.9000015258789)"><path id="SvgjsPath1115" d="M 0 4Q 0 0 4 0L 927 0Q 931 0 931 4L 931 144.0999984741211Q 931 148.0999984741211 927 148.0999984741211L 4 148.0999984741211Q 0 148.0999984741211 0 144.0999984741211Z" stroke-dasharray="10,6" stroke="rgba(50,50,50,1)" stroke-width="2" fill-opacity="1" fill="#ffffff"></path><g id="SvgjsG1116"><text id="SvgjsText1117" font-family="微软雅黑" text-anchor="middle" font-size="13px" width="911px" fill="#323232" font-weight="400" align="middle" lineHeight="125%" anchor="middle" family="微软雅黑" size="13px" weight="400" font-style="" opacity="1" y="64.42499923706055" transform="rotate(0)"></text></g></g><g id="SvgjsG1118" transform="translate(355.5249938964844,25)"><path id="SvgjsPath1119" d="M 0 0L 269.96059148426684 0L 269.96059148426684 93L 0 93Z" stroke-dasharray="10,6" stroke="rgba(50,50,50,1)" stroke-width="2" fill-opacity="1" fill="#ffffff"></path><g id="SvgjsG1120"><text id="SvgjsText1121" font-family="微软雅黑" text-anchor="middle" font-size="13px" width="250px" fill="#323232" font-weight="400" align="middle" lineHeight="125%" anchor="middle" family="微软雅黑" size="13px" weight="400" font-style="" opacity="1" y="36.875" transform="rotate(0)"></text></g></g><g id="SvgjsG1122" transform="translate(413.8498130443198,49.642857142857125)"><path id="SvgjsPath1123" d="M 0 0L 149.1448946780363 0L 149.1448946780363 43.71428571428571L 0 43.71428571428571Z" stroke="rgba(50,50,50,1)" stroke-width="2" fill-opacity="1" fill="#ffffff"></path><g id="SvgjsG1124"><text id="SvgjsText1125" font-family="微软雅黑" text-anchor="middle" font-size="20px" width="130px" fill="#323232" font-weight="400" align="middle" lineHeight="125%" anchor="middle" family="微软雅黑" size="20px" weight="400" font-style="" opacity="1" y="6.857142857142854" transform="rotate(0)"><tspan id="SvgjsTspan1126" dy="25" x="75"><tspan id="SvgjsTspan1127" style="text-decoration:;">瞳孔图像</tspan></tspan></text></g></g><g id="SvgjsG1128" transform="translate(57.99678637518525,243.70000457763672)"><path id="SvgjsPath1129" d="M 0 0L 130 0L 130 67L 0 67Z" stroke="rgba(50,50,50,1)" stroke-width="2" fill-opacity="1" fill="#ffffff"></path><g id="SvgjsG1130"><text id="SvgjsText1131" font-family="微软雅黑" text-anchor="middle" font-size="13px" width="110px" fill="#323232" font-weight="400" align="middle" lineHeight="125%" anchor="middle" family="微软雅黑" size="13px" weight="400" font-style="" opacity="1" y="23.875" transform="rotate(0)"><tspan id="SvgjsTspan1132" dy="16" x="65"><tspan id="SvgjsTspan1133" style="text-decoration:;">注视点位</tspan></tspan></text></g></g><g id="SvgjsG1134" transform="translate(239.1049853067039,243.70000457763672)"><path id="SvgjsPath1135" d="M 0 0L 130 0L 130 67L 0 67Z" stroke="rgba(50,50,50,1)" stroke-width="2" fill-opacity="1" fill="#ffffff"></path><g id="SvgjsG1136"><text id="SvgjsText1137" font-family="微软雅黑" text-anchor="middle" font-size="13px" width="110px" fill="#323232" font-weight="400" align="middle" lineHeight="125%" anchor="middle" family="微软雅黑" size="13px" weight="400" font-style="" opacity="1" y="23.875" transform="rotate(0)"><tspan id="SvgjsTspan1138" dy="16" x="65"><tspan id="SvgjsTspan1139" style="text-decoration:;">工作负载</tspan></tspan></text></g></g><g id="SvgjsG1140" transform="translate(420.21318423822254,243.70000457763672)"><path id="SvgjsPath1141" d="M 0 0L 130 0L 130 67L 0 67Z" stroke="rgba(50,50,50,1)" stroke-width="2" fill-opacity="1" fill="#ffffff"></path><g id="SvgjsG1142"><text id="SvgjsText1143" font-family="微软雅黑" text-anchor="middle" font-size="13px" width="110px" fill="#323232" font-weight="400" align="middle" lineHeight="125%" anchor="middle" family="微软雅黑" size="13px" weight="400" font-style="" opacity="1" y="23.875" transform="rotate(0)"><tspan id="SvgjsTspan1144" dy="16" x="65"><tspan id="SvgjsTspan1145" style="text-decoration:;">认知状态</tspan></tspan></text></g></g><g id="SvgjsG1146" transform="translate(601.3213831697411,243.70000457763672)"><path id="SvgjsPath1147" d="M 0 0L 130 0L 130 67L 0 67Z" stroke="rgba(50,50,50,1)" stroke-width="2" fill-opacity="1" fill="#ffffff"></path><g id="SvgjsG1148"><text id="SvgjsText1149" font-family="微软雅黑" text-anchor="middle" font-size="13px" width="110px" fill="#323232" font-weight="400" align="middle" lineHeight="125%" anchor="middle" family="微软雅黑" size="13px" weight="400" font-style="" opacity="1" y="23.875" transform="rotate(0)"><tspan id="SvgjsTspan1150" dy="16" x="65"><tspan id="SvgjsTspan1151" style="text-decoration:;">决策能力</tspan></tspan></text></g></g><g id="SvgjsG1152" transform="translate(787.4295821012598,243.70000457763672)"><path id="SvgjsPath1153" d="M 0 0L 130 0L 130 67L 0 67Z" stroke="rgba(50,50,50,1)" stroke-width="2" fill-opacity="1" fill="#ffffff"></path><g id="SvgjsG1154"><text id="SvgjsText1155" font-family="微软雅黑" text-anchor="middle" font-size="13px" width="110px" fill="#323232" font-weight="400" align="middle" lineHeight="125%" anchor="middle" family="微软雅黑" size="13px" weight="400" font-style="" opacity="1" y="23.875" transform="rotate(0)"><tspan id="SvgjsTspan1156" dy="16" x="65"><tspan id="SvgjsTspan1157" style="text-decoration:;">其他特征</tspan></tspan></text></g></g><g id="SvgjsG1158"><path id="SvgjsPath1159" d="M490.5052896386178 119L490.5052896386178 150.10000228881836L490.5052896386178 150.10000228881836L490.5052896386178 182.20000457763672" stroke="#323232" stroke-width="2" fill="none" marker-end="url(#SvgjsMarker1160)"></path></g><g id="SvgjsG1162" transform="translate(467.0052896386178,202.35139076116752)"><path id="SvgjsPath1163" d="M 0 4Q 0 0 4 0L 43 0Q 47 0 47 4L 47 27Q 47 31 43 31L 4 31Q 0 31 0 27Z" stroke="rgba(50,50,50,1)" stroke-width="2" fill-opacity="1" fill="#ffffff"></path><g id="SvgjsG1164"><text id="SvgjsText1165" font-family="微软雅黑" text-anchor="middle" font-size="13px" width="27px" fill="#323232" font-weight="400" align="middle" lineHeight="125%" anchor="middle" family="微软雅黑" size="13px" weight="400" font-style="" opacity="1" y="5.875" transform="rotate(0)"><tspan id="SvgjsTspan1166" dy="16" x="23.5"><tspan id="SvgjsTspan1167" style="text-decoration:;">特征</tspan></tspan></text></g></g><g id="SvgjsG1168" transform="translate(27.95333210928925,398.4499969482422)"><path id="SvgjsPath1169" d="M 0 4Q 0 0 4 0L 921.1039150586571 0Q 925.1039150586571 0 925.1039150586571 4L 925.1039150586571 118.55000305175781Q 925.1039150586571 122.55000305175781 921.1039150586571 122.55000305175781L 4 122.55000305175781Q 0 122.55000305175781 0 118.55000305175781Z" stroke-dasharray="10,6" stroke="rgba(50,50,50,1)" stroke-width="2" fill-opacity="1" fill="#ffffff"></path><g id="SvgjsG1170"><text id="SvgjsText1171" font-family="微软雅黑" text-anchor="middle" font-size="13px" width="906px" fill="#323232" font-weight="400" align="middle" lineHeight="125%" anchor="middle" family="微软雅黑" size="13px" weight="400" font-style="" opacity="1" y="51.650001525878906" transform="rotate(0)"></text></g></g><g id="SvgjsG1172" transform="translate(62.429582101259825,456.6400967435353)"><path id="SvgjsPath1173" d="M 0 0L 83 0L 83 41L 0 41Z" stroke="rgba(50,50,50,1)" stroke-width="2" fill-opacity="1" fill="#ffffff"></path><g id="SvgjsG1174"><text id="SvgjsText1175" font-family="微软雅黑" text-anchor="middle" font-size="13px" width="63px" fill="#323232" font-weight="400" align="middle" lineHeight="125%" anchor="middle" family="微软雅黑" size="13px" weight="400" font-style="" opacity="1" y="10.875" transform="rotate(0)"><tspan id="SvgjsTspan1176" dy="16" x="41.5"><tspan id="SvgjsTspan1177" style="text-decoration:;">自动驾驶</tspan></tspan></text></g></g><g id="SvgjsG1178" transform="translate(187.99678637518525,456.6400967435353)"><path id="SvgjsPath1179" d="M 0 0L 98.57999141021952 0L 98.57999141021952 41L 0 41Z" stroke="rgba(50,50,50,1)" stroke-width="2" fill-opacity="1" fill="#ffffff"></path><g id="SvgjsG1180"><text id="SvgjsText1181" font-family="微软雅黑" text-anchor="middle" font-size="13px" width="79px" fill="#323232" font-weight="400" align="middle" lineHeight="125%" anchor="middle" family="微软雅黑" size="13px" weight="400" font-style="" opacity="1" y="10.875" transform="rotate(0)"><tspan id="SvgjsTspan1182" dy="16" x="49.5"><tspan id="SvgjsTspan1183" style="text-decoration:;">消费行为分析</tspan></tspan></text></g></g><g id="SvgjsG1184" transform="translate(329.1439820593302,456.6400967435353)"><path id="SvgjsPath1185" d="M 0 0L 83 0L 83 41L 0 41Z" stroke="rgba(50,50,50,1)" stroke-width="2" fill-opacity="1" fill="#ffffff"></path><g id="SvgjsG1186"><text id="SvgjsText1187" font-family="微软雅黑" text-anchor="middle" font-size="13px" width="63px" fill="#323232" font-weight="400" align="middle" lineHeight="125%" anchor="middle" family="微软雅黑" size="13px" weight="400" font-style="" opacity="1" y="10.875" transform="rotate(0)"><tspan id="SvgjsTspan1188" dy="16" x="41.5"><tspan id="SvgjsTspan1189" style="text-decoration:;">VR/AR</tspan></tspan></text></g></g><g id="SvgjsG1190" transform="translate(731.3213831697411,456.6400967435353)"><path id="SvgjsPath1191" d="M 0 0L 94 0L 94 41L 0 41Z" stroke="rgba(50,50,50,1)" stroke-width="2" fill-opacity="1" fill="#ffffff"></path><g id="SvgjsG1192"><text id="SvgjsText1193" font-family="微软雅黑" text-anchor="middle" font-size="13px" width="74px" fill="#323232" font-weight="400" align="middle" lineHeight="125%" anchor="middle" family="微软雅黑" size="13px" weight="400" font-style="" opacity="1" y="10.875" transform="rotate(0)"><tspan id="SvgjsTspan1194" dy="16" x="47"><tspan id="SvgjsTspan1195" style="text-decoration:;">心理学</tspan></tspan></text></g></g><g id="SvgjsG1196" transform="translate(594.2823864171148,456.6400967435353)"><path id="SvgjsPath1197" d="M 0 0L 94 0L 94 41L 0 41Z" stroke="rgba(50,50,50,1)" stroke-width="2" fill-opacity="1" fill="#ffffff"></path><g id="SvgjsG1198"><text id="SvgjsText1199" font-family="微软雅黑" text-anchor="middle" font-size="13px" width="74px" fill="#323232" font-weight="400" align="middle" lineHeight="125%" anchor="middle" family="微软雅黑" size="13px" weight="400" font-style="" opacity="1" y="10.875" transform="rotate(0)"><tspan id="SvgjsTspan1200" dy="16" x="47"><tspan id="SvgjsTspan1201" style="text-decoration:;">人机交互</tspan></tspan></text></g></g><g id="SvgjsG1202" transform="translate(470.5769514258129,412.9013861835308)"><path id="SvgjsPath1203" d="M 0 4Q 0 0 4 0L 47.298144133939104 0Q 51.298144133939104 0 51.298144133939104 4L 51.298144133939104 27Q 51.298144133939104 31 47.298144133939104 31L 4 31Q 0 31 0 27Z" stroke="rgba(50,50,50,1)" stroke-width="2" fill-opacity="1" fill="#ffffff"></path><g id="SvgjsG1204"><text id="SvgjsText1205" font-family="微软雅黑" text-anchor="middle" font-size="13px" width="32px" fill="#323232" font-weight="400" align="middle" lineHeight="125%" anchor="middle" family="微软雅黑" size="13px" weight="400" font-style="" opacity="1" y="5.875" transform="rotate(0)"><tspan id="SvgjsTspan1206" dy="16" x="26"><tspan id="SvgjsTspan1207" style="text-decoration:;">应用</tspan></tspan></text></g></g><g id="SvgjsG1208" transform="translate(848.4295821012598,456.6400967435353)"><path id="SvgjsPath1209" d="M 0 0L 94 0L 94 41L 0 41Z" stroke="rgba(50,50,50,1)" stroke-width="2" fill-opacity="1" fill="#ffffff"></path><g id="SvgjsG1210"><text id="SvgjsText1211" font-family="微软雅黑" text-anchor="middle" font-size="13px" width="74px" fill="#323232" font-weight="400" align="middle" lineHeight="125%" anchor="middle" family="微软雅黑" size="13px" weight="400" font-style="" opacity="1" y="10.875" transform="rotate(0)"><tspan id="SvgjsTspan1212" dy="16" x="47"><tspan id="SvgjsTspan1213" style="text-decoration:;">其他应用</tspan></tspan></text></g></g><g id="SvgjsG1214"><path id="SvgjsPath1215" d="M490.5052896386178 340L490.5052896386178 368.7249984741211L490.5052896386178 368.7249984741211L490.5052896386178 394.84999694824216" stroke="#323232" stroke-width="2" fill="none" marker-end="url(#SvgjsMarker1216)"></path></g><g id="SvgjsG1218" transform="translate(456.21318423822254,456.6400967435353)"><path id="SvgjsPath1219" d="M 0 0L 94 0L 94 41L 0 41Z" stroke="rgba(50,50,50,1)" stroke-width="2" fill-opacity="1" fill="#ffffff"></path><g id="SvgjsG1220"><text id="SvgjsText1221" font-family="微软雅黑" text-anchor="middle" font-size="13px" width="74px" fill="#323232" font-weight="400" align="middle" lineHeight="125%" anchor="middle" family="微软雅黑" size="13px" weight="400" font-style="" opacity="1" y="10.875" transform="rotate(0)"><tspan id="SvgjsTspan1222" dy="16" x="47"><tspan id="SvgjsTspan1223" style="text-decoration:;">医疗健康</tspan></tspan></text></g></g></svg>