<svg id="SvgjsSvg1006" width="981" height="545.4625091552734" xmlns="http://www.w3.org/2000/svg" version="1.1" xmlns:xlink="http://www.w3.org/1999/xlink" xmlns:svgjs="http://svgjs.com/svgjs"><defs id="SvgjsDefs1007"><marker id="SvgjsMarker1054" markerWidth="14" markerHeight="10" refX="10" refY="5" viewBox="0 0 14 10" orient="auto" markerUnits="userSpaceOnUse" stroke-dasharray="0,0"><path id="SvgjsPath1055" d="M0,0 L14,5 L0,10 L0,0" fill="#323232" stroke="#323232" stroke-width="1"></path></marker><marker id="SvgjsMarker1110" markerWidth="14" markerHeight="10" refX="10" refY="5" viewBox="0 0 14 10" orient="auto" markerUnits="userSpaceOnUse" stroke-dasharray="0,0"><path id="SvgjsPath1111" d="M0,0 L14,5 L0,10 L0,0" fill="#323232" stroke="#323232" stroke-width="1"></path></marker></defs><g id="SvgjsG1008" transform="translate(25.005289638617796,190.9124984741211)"><path id="SvgjsPath1009" d="M 0 4Q 0 0 4 0L 927 0Q 931 0 931 4L 931 144.0999984741211Q 931 148.0999984741211 927 148.0999984741211L 4 148.0999984741211Q 0 148.0999984741211 0 144.0999984741211Z" stroke-dasharray="10,6" stroke="rgba(50,50,50,1)" stroke-width="2" fill-opacity="1" fill="#ffffff"></path><g id="SvgjsG1010"><text id="SvgjsText1011" font-family="微软雅黑" text-anchor="middle" font-size="13px" width="911px" fill="#323232" font-weight="400" align="middle" lineHeight="125%" anchor="middle" family="微软雅黑" size="13px" weight="400" font-style="" opacity="1" y="64.42499923706055" transform="rotate(0)"></text></g></g><g id="SvgjsG1012" transform="translate(355.5249938964844,25.012496948242188)"><path id="SvgjsPath1013" d="M 0 0L 269.96059148426684 0L 269.96059148426684 93L 0 93Z" stroke-dasharray="10,6" stroke="rgba(50,50,50,1)" stroke-width="2" fill-opacity="1" fill="#ffffff"></path><g id="SvgjsG1014"><text id="SvgjsText1015" font-family="微软雅黑" text-anchor="middle" font-size="13px" width="250px" fill="#323232" font-weight="400" align="middle" lineHeight="125%" anchor="middle" family="微软雅黑" size="13px" weight="400" font-style="" opacity="1" y="36.875" transform="rotate(0)"></text></g></g><g id="SvgjsG1016" transform="translate(413.8498130443198,49.65535409109931)"><path id="SvgjsPath1017" d="M 0 0L 149.1448946780363 0L 149.1448946780363 43.71428571428571L 0 43.71428571428571Z" stroke="rgba(50,50,50,1)" stroke-width="2" fill-opacity="1" fill="#ffffff"></path><g id="SvgjsG1018"><text id="SvgjsText1019" font-family="微软雅黑" text-anchor="middle" font-size="20px" width="130px" fill="#323232" font-weight="400" align="middle" lineHeight="125%" anchor="middle" family="微软雅黑" size="20px" weight="400" font-style="" opacity="1" y="6.857142857142854" transform="rotate(0)"><tspan id="SvgjsTspan1020" dy="25" x="75"><tspan id="SvgjsTspan1021" style="text-decoration:;">瞳孔图像</tspan></tspan></text></g></g><g id="SvgjsG1022" transform="translate(57.99678637518525,243.7125015258789)"><path id="SvgjsPath1023" d="M 0 0L 130 0L 130 67L 0 67Z" stroke="rgba(50,50,50,1)" stroke-width="2" fill-opacity="1" fill="#ffffff"></path><g id="SvgjsG1024"><text id="SvgjsText1025" font-family="微软雅黑" text-anchor="middle" font-size="13px" width="110px" fill="#323232" font-weight="400" align="middle" lineHeight="125%" anchor="middle" family="微软雅黑" size="13px" weight="400" font-style="" opacity="1" y="23.875" transform="rotate(0)"><tspan id="SvgjsTspan1026" dy="16" x="65"><tspan id="SvgjsTspan1027" style="text-decoration:;">注视点位</tspan></tspan></text></g></g><g id="SvgjsG1028" transform="translate(239.1049853067039,243.7125015258789)"><path id="SvgjsPath1029" d="M 0 0L 130 0L 130 67L 0 67Z" stroke="rgba(50,50,50,1)" stroke-width="2" fill-opacity="1" fill="#ffffff"></path><g id="SvgjsG1030"><text id="SvgjsText1031" font-family="微软雅黑" text-anchor="middle" font-size="13px" width="110px" fill="#323232" font-weight="400" align="middle" lineHeight="125%" anchor="middle" family="微软雅黑" size="13px" weight="400" font-style="" opacity="1" y="23.875" transform="rotate(0)"><tspan id="SvgjsTspan1032" dy="16" x="65"><tspan id="SvgjsTspan1033" style="text-decoration:;">工作负载</tspan></tspan></text></g></g><g id="SvgjsG1034" transform="translate(420.21318423822254,243.7125015258789)"><path id="SvgjsPath1035" d="M 0 0L 130 0L 130 67L 0 67Z" stroke="rgba(50,50,50,1)" stroke-width="2" fill-opacity="1" fill="#ffffff"></path><g id="SvgjsG1036"><text id="SvgjsText1037" font-family="微软雅黑" text-anchor="middle" font-size="13px" width="110px" fill="#323232" font-weight="400" align="middle" lineHeight="125%" anchor="middle" family="微软雅黑" size="13px" weight="400" font-style="" opacity="1" y="23.875" transform="rotate(0)"><tspan id="SvgjsTspan1038" dy="16" x="65"><tspan id="SvgjsTspan1039" style="text-decoration:;">认知状态</tspan></tspan></text></g></g><g id="SvgjsG1040" transform="translate(601.3213831697411,243.7125015258789)"><path id="SvgjsPath1041" d="M 0 0L 130 0L 130 67L 0 67Z" stroke="rgba(50,50,50,1)" stroke-width="2" fill-opacity="1" fill="#ffffff"></path><g id="SvgjsG1042"><text id="SvgjsText1043" font-family="微软雅黑" text-anchor="middle" font-size="13px" width="110px" fill="#323232" font-weight="400" align="middle" lineHeight="125%" anchor="middle" family="微软雅黑" size="13px" weight="400" font-style="" opacity="1" y="23.875" transform="rotate(0)"><tspan id="SvgjsTspan1044" dy="16" x="65"><tspan id="SvgjsTspan1045" style="text-decoration:;">决策能力</tspan></tspan></text></g></g><g id="SvgjsG1046" transform="translate(787.4295821012598,243.7125015258789)"><path id="SvgjsPath1047" d="M 0 0L 130 0L 130 67L 0 67Z" stroke="rgba(50,50,50,1)" stroke-width="2" fill-opacity="1" fill="#ffffff"></path><g id="SvgjsG1048"><text id="SvgjsText1049" font-family="微软雅黑" text-anchor="middle" font-size="13px" width="110px" fill="#323232" font-weight="400" align="middle" lineHeight="125%" anchor="middle" family="微软雅黑" size="13px" weight="400" font-style="" opacity="1" y="23.875" transform="rotate(0)"><tspan id="SvgjsTspan1050" dy="16" x="65"><tspan id="SvgjsTspan1051" style="text-decoration:;">其他特征</tspan></tspan></text></g></g><g id="SvgjsG1052"><path id="SvgjsPath1053" d="M490.5052896386178 119.01249694824219L490.5052896386178 150.11249923706055L490.5052896386178 150.11249923706055L490.5052896386178 182.2125015258789" stroke="#323232" stroke-width="2" fill="none" marker-end="url(#SvgjsMarker1054)"></path></g><g id="SvgjsG1056" transform="translate(467.0052896386178,202.3638877094097)"><path id="SvgjsPath1057" d="M 0 4Q 0 0 4 0L 43 0Q 47 0 47 4L 47 27Q 47 31 43 31L 4 31Q 0 31 0 27Z" stroke="rgba(50,50,50,1)" stroke-width="2" fill-opacity="1" fill="#ffffff"></path><g id="SvgjsG1058"><text id="SvgjsText1059" font-family="微软雅黑" text-anchor="middle" font-size="13px" width="27px" fill="#323232" font-weight="400" align="middle" lineHeight="125%" anchor="middle" family="微软雅黑" size="13px" weight="400" font-style="" opacity="1" y="5.875" transform="rotate(0)"><tspan id="SvgjsTspan1060" dy="16" x="23.5"><tspan id="SvgjsTspan1061" style="text-decoration:;">特征</tspan></tspan></text></g></g><g id="SvgjsG1062" transform="translate(27.95333210928925,398.4624938964844)"><path id="SvgjsPath1063" d="M 0 4Q 0 0 4 0L 921.1039150586571 0Q 925.1039150586571 0 925.1039150586571 4L 925.1039150586571 118.55000305175781Q 925.1039150586571 122.55000305175781 921.1039150586571 122.55000305175781L 4 122.55000305175781Q 0 122.55000305175781 0 118.55000305175781Z" stroke-dasharray="10,6" stroke="rgba(50,50,50,1)" stroke-width="2" fill-opacity="1" fill="#ffffff"></path><g id="SvgjsG1064"><text id="SvgjsText1065" font-family="微软雅黑" text-anchor="middle" font-size="13px" width="906px" fill="#323232" font-weight="400" align="middle" lineHeight="125%" anchor="middle" family="微软雅黑" size="13px" weight="400" font-style="" opacity="1" y="51.650001525878906" transform="rotate(0)"></text></g></g><g id="SvgjsG1066" transform="translate(105.42958210125983,460.6525936917775)"><path id="SvgjsPath1067" d="M 0 0L 83 0L 83 41L 0 41Z" stroke="rgba(50,50,50,1)" stroke-width="2" fill-opacity="1" fill="#ffffff"></path><g id="SvgjsG1068"><text id="SvgjsText1069" font-family="微软雅黑" text-anchor="middle" font-size="13px" width="63px" fill="#323232" font-weight="400" align="middle" lineHeight="125%" anchor="middle" family="微软雅黑" size="13px" weight="400" font-style="" opacity="1" y="10.875" transform="rotate(0)"><tspan id="SvgjsTspan1070" dy="16" x="41.5"><tspan id="SvgjsTspan1071" style="text-decoration:;">自动驾驶</tspan></tspan></text></g></g><g id="SvgjsG1072" transform="translate(220.32566704260273,460.6525936917775)"><path id="SvgjsPath1073" d="M 0 0L 98.57999141021952 0L 98.57999141021952 41L 0 41Z" stroke="rgba(50,50,50,1)" stroke-width="2" fill-opacity="1" fill="#ffffff"></path><g id="SvgjsG1074"><text id="SvgjsText1075" font-family="微软雅黑" text-anchor="middle" font-size="13px" width="79px" fill="#323232" font-weight="400" align="middle" lineHeight="125%" anchor="middle" family="微软雅黑" size="13px" weight="400" font-style="" opacity="1" y="10.875" transform="rotate(0)"><tspan id="SvgjsTspan1076" dy="16" x="49.5"><tspan id="SvgjsTspan1077" style="text-decoration:;">消费行为分析</tspan></tspan></text></g></g><g id="SvgjsG1078" transform="translate(364.00957351147935,460.6525936917775)"><path id="SvgjsPath1079" d="M 0 0L 83 0L 83 41L 0 41Z" stroke="rgba(50,50,50,1)" stroke-width="2" fill-opacity="1" fill="#ffffff"></path><g id="SvgjsG1080"><text id="SvgjsText1081" font-family="微软雅黑" text-anchor="middle" font-size="13px" width="63px" fill="#323232" font-weight="400" align="middle" lineHeight="125%" anchor="middle" family="微软雅黑" size="13px" weight="400" font-style="" opacity="1" y="10.875" transform="rotate(0)"><tspan id="SvgjsTspan1082" dy="16" x="41.5"><tspan id="SvgjsTspan1083" style="text-decoration:;">VR/AR</tspan></tspan></text></g></g><g id="SvgjsG1084" transform="translate(493.4295821012598,460.6525936917775)"><path id="SvgjsPath1085" d="M 0 0L 94 0L 94 41L 0 41Z" stroke="rgba(50,50,50,1)" stroke-width="2" fill-opacity="1" fill="#ffffff"></path><g id="SvgjsG1086"><text id="SvgjsText1087" font-family="微软雅黑" text-anchor="middle" font-size="13px" width="74px" fill="#323232" font-weight="400" align="middle" lineHeight="125%" anchor="middle" family="微软雅黑" size="13px" weight="400" font-style="" opacity="1" y="10.875" transform="rotate(0)"><tspan id="SvgjsTspan1088" dy="16" x="47"><tspan id="SvgjsTspan1089" style="text-decoration:;">心理学</tspan></tspan></text></g></g><g id="SvgjsG1090" transform="translate(650.4295821012598,460.6525936917775)"><path id="SvgjsPath1091" d="M 0 0L 94 0L 94 41L 0 41Z" stroke="rgba(50,50,50,1)" stroke-width="2" fill-opacity="1" fill="#ffffff"></path><g id="SvgjsG1092"><text id="SvgjsText1093" font-family="微软雅黑" text-anchor="middle" font-size="13px" width="74px" fill="#323232" font-weight="400" align="middle" lineHeight="125%" anchor="middle" family="微软雅黑" size="13px" weight="400" font-style="" opacity="1" y="10.875" transform="rotate(0)"><tspan id="SvgjsTspan1094" dy="16" x="47"><tspan id="SvgjsTspan1095" style="text-decoration:;">人机交互</tspan></tspan></text></g></g><g id="SvgjsG1096" transform="translate(470.5769514258129,412.913883131773)"><path id="SvgjsPath1097" d="M 0 4Q 0 0 4 0L 47.298144133939104 0Q 51.298144133939104 0 51.298144133939104 4L 51.298144133939104 27Q 51.298144133939104 31 47.298144133939104 31L 4 31Q 0 31 0 27Z" stroke="rgba(50,50,50,1)" stroke-width="2" fill-opacity="1" fill="#ffffff"></path><g id="SvgjsG1098"><text id="SvgjsText1099" font-family="微软雅黑" text-anchor="middle" font-size="13px" width="32px" fill="#323232" font-weight="400" align="middle" lineHeight="125%" anchor="middle" family="微软雅黑" size="13px" weight="400" font-style="" opacity="1" y="5.875" transform="rotate(0)"><tspan id="SvgjsTspan1100" dy="16" x="26"><tspan id="SvgjsTspan1101" style="text-decoration:;">应用</tspan></tspan></text></g></g><g id="SvgjsG1102" transform="translate(823.4295821012598,460.6525936917775)"><path id="SvgjsPath1103" d="M 0 0L 94 0L 94 41L 0 41Z" stroke="rgba(50,50,50,1)" stroke-width="2" fill-opacity="1" fill="#ffffff"></path><g id="SvgjsG1104"><text id="SvgjsText1105" font-family="微软雅黑" text-anchor="middle" font-size="13px" width="74px" fill="#323232" font-weight="400" align="middle" lineHeight="125%" anchor="middle" family="微软雅黑" size="13px" weight="400" font-style="" opacity="1" y="10.875" transform="rotate(0)"><tspan id="SvgjsTspan1106" dy="16" x="47"><tspan id="SvgjsTspan1107" style="text-decoration:;">其他应用</tspan></tspan></text></g></g><g id="SvgjsG1108"><path id="SvgjsPath1109" d="M490.5052896386178 340.0124969482422L490.5052896386178 368.7374954223633L490.5052896386178 368.7374954223633L490.5052896386178 394.86249389648435" stroke="#323232" stroke-width="2" fill="none" marker-end="url(#SvgjsMarker1110)"></path></g></svg>